<svg width="1400" height="1080" viewBox="0 0 1400 1080" fill="none" xmlns="http://www.w3.org/2000/svg">
  <rect width="1400" height="1080" fill="#101A29"/>
  <rect x="62" y="58" width="1276" height="964" rx="40" fill="#122033"/>
  <path d="M865 0H1400V602C1288 618 1180 626 1076 626C993 626 923 618 865 602V0Z" fill="url(#paint0_linear_1_2)"/>
  <rect x="132" y="118" width="540" height="740" rx="34" fill="#EEF5FC"/>
  <rect x="190" y="184" width="162" height="18" rx="9" fill="#7BAEE2" fill-opacity="0.36"/>
  <rect x="190" y="232" width="298" height="12" rx="6" fill="#17314B" fill-opacity="0.14"/>
  <rect x="190" y="270" width="232" height="12" rx="6" fill="#17314B" fill-opacity="0.1"/>
  <path d="M216 454C270 400.667 324 374 378 374C432 374 486 405 540 467C594 529 648 560 702 560" stroke="#2F6EA8" stroke-width="18" stroke-linecap="round"/>
  <circle cx="378" cy="374" r="22" fill="#2F6EA8"/>
  <circle cx="540" cy="467" r="22" fill="#2F6EA8"/>
  <circle cx="702" cy="560" r="22" fill="#2F6EA8"/>
  <rect x="190" y="644" width="424" height="142" rx="24" fill="#DCEAF7"/>
  <rect x="228" y="682" width="148" height="16" rx="8" fill="#17314B" fill-opacity="0.16"/>
  <rect x="228" y="718" width="300" height="12" rx="6" fill="#17314B" fill-opacity="0.1"/>
  <rect x="732" y="170" width="560" height="338" rx="34" fill="#18283D"/>
  <rect x="780" y="220" width="164" height="18" rx="9" fill="#7BAEE2" fill-opacity="0.36"/>
  <rect x="780" y="262" width="240" height="12" rx="6" fill="#DCEAF7" fill-opacity="0.14"/>
  <rect x="780" y="310" width="464" height="150" rx="22" fill="#0F1B2C"/>
  <path d="M824 416L902 362L980 388L1058 306L1136 330L1214 258" stroke="#79B4EB" stroke-width="16" stroke-linecap="round" stroke-linejoin="round"/>
  <rect x="732" y="560" width="560" height="246" rx="34" fill="#162438"/>
  <circle cx="886" cy="680" r="88" fill="#1F5F96" fill-opacity="0.22"/>
  <path d="M884 616V680L940 716" stroke="#DCEAF7" stroke-width="16" stroke-linecap="round"/>
  <rect x="1022" y="618" width="184" height="18" rx="9" fill="#DCEAF7" fill-opacity="0.16"/>
  <rect x="1022" y="656" width="208" height="12" rx="6" fill="#DCEAF7" fill-opacity="0.11"/>
  <rect x="1022" y="710" width="136" height="40" rx="20" fill="#7BAEE2" fill-opacity="0.18"/>
  <rect x="86" y="898" width="1228" height="76" rx="28" fill="#152337"/>
  <rect x="132" y="924" width="192" height="12" rx="6" fill="#DCEAF7" fill-opacity="0.11"/>
  <rect x="1058" y="920" width="198" height="16" rx="8" fill="#7BAEE2" fill-opacity="0.24"/>
  <defs>
    <linearGradient id="paint0_linear_1_2" x1="1132.5" y1="0" x2="1132.5" y2="626" gradientUnits="userSpaceOnUse">
      <stop stop-color="#1A3150"/>
      <stop offset="1" stop-color="#16273C"/>
    </linearGradient>
  </defs>
</svg>
