<svg width="1200" height="825" viewBox="0 0 1200 825" fill="none" xmlns="http://www.w3.org/2000/svg">
  <rect width="1200" height="825" rx="48" fill="#F3EFE7"/>
  <rect x="58" y="58" width="1084" height="709" rx="38" fill="#FBF8F1"/>
  <rect x="108" y="118" width="206" height="28" rx="14" fill="#A65B31" fill-opacity="0.18"/>
  <rect x="108" y="186" width="252" height="528" rx="30" fill="#EEE8DD"/>
  <rect x="394" y="186" width="328" height="246" rx="30" fill="#E8E0D4"/>
  <rect x="756" y="186" width="334" height="246" rx="30" fill="#E8E0D4"/>
  <rect x="394" y="466" width="696" height="248" rx="30" fill="#EEE8DD"/>
  <rect x="432" y="226" width="146" height="16" rx="8" fill="#17181C" fill-opacity="0.12"/>
  <rect x="432" y="258" width="244" height="12" rx="6" fill="#17181C" fill-opacity="0.08"/>
  <rect x="794" y="226" width="174" height="16" rx="8" fill="#17181C" fill-opacity="0.12"/>
  <rect x="794" y="258" width="218" height="12" rx="6" fill="#17181C" fill-opacity="0.08"/>
  <rect x="142" y="224" width="184" height="40" rx="20" fill="#17181C" fill-opacity="0.06"/>
  <rect x="142" y="286" width="184" height="40" rx="20" fill="#A65B31" fill-opacity="0.14"/>
  <rect x="142" y="348" width="184" height="40" rx="20" fill="#17181C" fill-opacity="0.06"/>
  <path d="M432 612H1018" stroke="#17181C" stroke-opacity="0.1" stroke-width="16" stroke-linecap="round"/>
  <path d="M432 572C492 534.667 552 516 612 516C672 516 732 538 792 582C852 626 912 648 972 648" stroke="#A65B31" stroke-width="14" stroke-linecap="round"/>
</svg>
