<svg width="1200" height="825" viewBox="0 0 1200 825" fill="none" xmlns="http://www.w3.org/2000/svg">
  <rect width="1200" height="825" rx="48" fill="#121821"/>
  <rect x="72" y="72" width="1056" height="681" rx="36" fill="#18212B"/>
  <rect x="134" y="138" width="230" height="30" rx="15" fill="#DA8F5C" fill-opacity="0.16"/>
  <rect x="134" y="220" width="932" height="126" rx="28" fill="#202C37"/>
  <rect x="134" y="386" width="270" height="256" rx="30" fill="#223140"/>
  <rect x="466" y="386" width="272" height="256" rx="30" fill="#223140"/>
  <rect x="800" y="386" width="266" height="256" rx="30" fill="#223140"/>
  <circle cx="270" cy="283" r="34" fill="#F3EFE7" fill-opacity="0.14"/>
  <circle cx="600" cy="283" r="34" fill="#A65B31" fill-opacity="0.28"/>
  <circle cx="930" cy="283" r="34" fill="#F3EFE7" fill-opacity="0.14"/>
  <path d="M304 283H566" stroke="#F3EFE7" stroke-opacity="0.12" stroke-width="12" stroke-linecap="round"/>
  <path d="M634 283H896" stroke="#F3EFE7" stroke-opacity="0.12" stroke-width="12" stroke-linecap="round"/>
  <rect x="174" y="432" width="160" height="18" rx="9" fill="#F3EFE7" fill-opacity="0.14"/>
  <rect x="174" y="470" width="176" height="12" rx="6" fill="#F3EFE7" fill-opacity="0.1"/>
  <rect x="506" y="432" width="160" height="18" rx="9" fill="#F3EFE7" fill-opacity="0.14"/>
  <rect x="506" y="470" width="176" height="12" rx="6" fill="#F3EFE7" fill-opacity="0.1"/>
  <rect x="840" y="432" width="160" height="18" rx="9" fill="#F3EFE7" fill-opacity="0.14"/>
  <rect x="840" y="470" width="176" height="12" rx="6" fill="#F3EFE7" fill-opacity="0.1"/>
</svg>
